<svg width="71" height="79" viewBox="0 0 71 79" fill="none" xmlns="http://www.w3.org/2000/svg">
<path fill-rule="evenodd" clip-rule="evenodd" d="M35.5001 16.4383L44.2811 25.2193L48.0523 21.4481L39.2714 12.6671L48.0525 3.88598L44.2812 0.114746L35.5001 8.89588L26.719 0.114746L22.9478 3.88598L31.7289 12.6671L22.9479 21.4481L26.7192 25.2193L35.5001 16.4383Z" fill="#232224"/>
<path fill-rule="evenodd" clip-rule="evenodd" d="M18.3115 33.2192C16.4726 33.2192 14.7634 34.1665 13.7888 35.7259L3.06956 52.8767C1.71589 53.844 0.833496 55.4285 0.833496 57.2191V65.2191C0.833496 72.5829 6.80303 78.5524 14.1668 78.5524H56.8335C64.1973 78.5524 70.1668 72.5829 70.1668 65.2191V57.2191C70.1668 55.1543 68.9935 53.3637 67.2773 52.4773L54.4353 35.3528C53.4281 34.0097 51.8472 33.2192 50.1684 33.2192H18.3115ZM64.1668 57.2191L64.8335 58.108V65.2191C64.8335 69.6374 61.2518 73.2191 56.8335 73.2191H14.1668C9.74855 73.2191 6.16683 69.6374 6.16683 65.2191V57.984L6.64493 57.2191H19.5002V59.8857C19.5002 62.8313 21.888 65.2191 24.8335 65.2191H44.3118C47.2573 65.2191 49.6451 62.8313 49.6451 59.8857V57.2191H64.1668ZM60.1673 51.8857L50.1684 38.5526L18.3115 38.5526L9.97826 51.8857H19.5002C22.4457 51.8857 24.8335 54.2736 24.8335 57.2191V59.8857H44.3118V57.2191C44.3118 54.2736 46.6996 51.8857 49.6451 51.8857H60.1673Z" fill="#232224"/>
</svg>
